<svg id="svg" version="1.1" width="400" height="200" viewBox="0 0 400 200" xmlns="http://www.w3.org/2000/svg" xmlns:xlink="http://www.w3.org/1999/xlink" ><g id="svgg"><path id="path0" d="M184.800 1.783 C 184.800 3.029,184.875 3.594,185.050 3.656 C 185.195 3.708,185.226 3.819,185.123 3.923 C 185.019 4.026,184.908 3.995,184.856 3.850 C 184.719 3.466,179.273 3.499,178.886 3.886 C 178.499 4.273,178.466 9.719,178.850 9.856 C 178.995 9.908,179.026 10.019,178.923 10.123 C 178.819 10.226,178.708 10.195,178.656 10.050 C 178.519 9.665,172.873 9.698,172.486 10.086 C 172.099 10.473,172.066 15.919,172.450 16.056 C 172.595 16.108,172.626 16.219,172.523 16.323 C 172.419 16.426,172.308 16.395,172.256 16.250 C 172.119 15.866,166.673 15.899,166.286 16.286 C 165.899 16.673,165.866 22.119,166.250 22.256 C 166.395 22.308,166.426 22.419,166.323 22.523 C 166.219 22.626,166.108 22.595,166.056 22.450 C 165.919 22.066,160.473 22.099,160.086 22.486 C 159.698 22.873,159.665 28.519,160.050 28.656 C 160.195 28.708,160.226 28.819,160.123 28.923 C 160.019 29.026,159.908 28.995,159.856 28.850 C 159.719 28.466,154.273 28.499,153.886 28.886 C 153.499 29.273,153.466 34.719,153.850 34.856 C 153.995 34.908,154.026 35.019,153.923 35.123 C 153.819 35.226,153.708 35.195,153.656 35.050 C 153.519 34.665,147.873 34.698,147.486 35.086 C 147.099 35.473,147.066 40.919,147.450 41.056 C 147.595 41.108,147.626 41.219,147.523 41.323 C 147.419 41.426,147.308 41.395,147.256 41.250 C 147.119 40.866,141.673 40.899,141.286 41.286 C 140.899 41.673,140.866 47.119,141.250 47.256 C 141.395 47.308,141.426 47.419,141.323 47.523 C 141.219 47.626,141.108 47.595,141.056 47.450 C 140.919 47.066,135.473 47.099,135.086 47.486 C 134.698 47.873,134.665 53.519,135.050 53.656 C 135.195 53.708,135.226 53.819,135.123 53.923 C 135.019 54.026,134.908 53.995,134.856 53.850 C 134.719 53.466,129.273 53.499,128.886 53.886 C 128.499 54.273,128.466 59.719,128.850 59.856 C 128.995 59.908,129.026 60.019,128.923 60.123 C 128.819 60.226,128.708 60.195,128.656 60.050 C 128.519 59.665,122.873 59.698,122.486 60.086 C 122.099 60.473,122.066 65.919,122.450 66.056 C 122.595 66.108,122.626 66.219,122.523 66.323 C 122.419 66.426,122.308 66.395,122.256 66.250 C 122.119 65.866,116.673 65.899,116.286 66.286 C 115.899 66.673,115.866 72.119,116.250 72.256 C 116.395 72.308,116.426 72.419,116.323 72.523 C 116.219 72.626,116.108 72.595,116.056 72.450 C 115.919 72.066,110.473 72.099,110.086 72.486 C 109.698 72.873,109.665 78.519,110.050 78.656 C 110.195 78.708,110.226 78.819,110.123 78.923 C 110.019 79.026,109.908 78.995,109.856 78.850 C 109.719 78.466,104.273 78.499,103.886 78.886 C 103.499 79.273,103.466 84.719,103.850 84.856 C 103.995 84.908,104.026 85.019,103.923 85.123 C 103.819 85.226,103.708 85.195,103.656 85.050 C 103.519 84.665,97.873 84.698,97.486 85.086 C 97.099 85.473,97.066 90.919,97.450 91.056 C 97.595 91.108,97.626 91.219,97.523 91.323 C 97.419 91.426,97.308 91.395,97.256 91.250 C 97.119 90.866,91.673 90.899,91.286 91.286 C 90.899 91.673,90.866 97.119,91.250 97.256 C 91.395 97.308,91.426 97.419,91.323 97.523 C 91.219 97.626,91.108 97.595,91.056 97.450 C 90.919 97.066,85.473 97.099,85.086 97.486 C 84.698 97.873,84.665 103.519,85.050 103.656 C 85.195 103.708,85.226 103.819,85.123 103.923 C 85.019 104.026,84.908 103.995,84.856 103.850 C 84.719 103.466,79.273 103.499,78.886 103.886 C 78.499 104.273,78.466 109.719,78.850 109.856 C 78.995 109.908,79.026 110.019,78.923 110.123 C 78.819 110.226,78.708 110.195,78.656 110.050 C 78.519 109.665,72.873 109.698,72.486 110.086 C 72.099 110.473,72.066 115.919,72.450 116.056 C 72.595 116.108,72.626 116.219,72.523 116.323 C 72.419 116.426,72.308 116.395,72.256 116.250 C 72.119 115.866,66.673 115.899,66.286 116.286 C 65.899 116.673,65.866 122.119,66.250 122.256 C 66.395 122.308,66.426 122.419,66.323 122.523 C 66.219 122.626,66.108 122.595,66.056 122.450 C 65.919 122.066,60.473 122.099,60.086 122.486 C 59.698 122.873,59.665 128.519,60.050 128.656 C 60.195 128.708,60.226 128.819,60.123 128.923 C 60.019 129.026,59.908 128.995,59.856 128.850 C 59.719 128.466,54.273 128.499,53.886 128.886 C 53.499 129.273,53.466 134.719,53.850 134.856 C 53.995 134.908,54.026 135.019,53.923 135.123 C 53.819 135.226,53.708 135.195,53.656 135.050 C 53.519 134.665,47.873 134.698,47.486 135.086 C 47.099 135.473,47.066 140.919,47.450 141.056 C 47.595 141.108,47.626 141.219,47.523 141.323 C 47.419 141.426,47.308 141.395,47.256 141.250 C 47.119 140.866,41.673 140.899,41.286 141.286 C 40.899 141.673,40.866 147.119,41.250 147.256 C 41.395 147.308,41.426 147.419,41.323 147.523 C 41.219 147.626,41.108 147.595,41.056 147.450 C 40.919 147.066,35.473 147.099,35.086 147.486 C 34.698 147.873,34.665 153.519,35.050 153.656 C 35.195 153.708,35.226 153.819,35.123 153.923 C 35.019 154.026,34.908 153.995,34.856 153.850 C 34.719 153.466,29.273 153.499,28.886 153.886 C 28.499 154.273,28.466 159.719,28.850 159.856 C 28.995 159.908,29.026 160.019,28.923 160.123 C 28.819 160.226,28.708 160.195,28.656 160.050 C 28.519 159.665,22.873 159.698,22.486 160.086 C 22.099 160.473,22.066 165.919,22.450 166.056 C 22.595 166.108,22.626 166.219,22.523 166.323 C 22.419 166.426,22.308 166.395,22.256 166.250 C 22.119 165.866,16.673 165.899,16.286 166.286 C 15.899 166.673,15.866 172.119,16.250 172.256 C 16.395 172.308,16.426 172.419,16.323 172.523 C 16.219 172.626,16.108 172.595,16.056 172.450 C 15.919 172.066,10.473 172.099,10.086 172.486 C 9.698 172.873,9.665 178.519,10.050 178.656 C 10.195 178.708,10.226 178.819,10.123 178.923 C 10.019 179.026,9.908 178.995,9.856 178.850 C 9.719 178.466,4.273 178.499,3.886 178.886 C 3.499 179.273,3.466 184.719,3.850 184.856 C 3.995 184.908,4.026 185.019,3.923 185.123 C 3.819 185.226,3.708 185.195,3.656 185.050 C 3.594 184.875,3.029 184.800,1.783 184.800 L 0.000 184.800 0.000 192.400 L 0.000 200.000 7.800 200.000 L 15.600 200.000 15.600 198.417 C 15.600 197.331,15.521 196.805,15.350 196.744 C 15.205 196.692,15.174 196.581,15.277 196.477 C 15.381 196.374,15.492 196.405,15.544 196.550 C 15.681 196.934,21.127 196.901,21.514 196.514 C 21.901 196.127,21.934 190.681,21.550 190.544 C 21.405 190.492,21.374 190.381,21.477 190.277 C 21.581 190.174,21.692 190.205,21.744 190.350 C 21.881 190.735,27.527 190.702,27.914 190.314 C 28.301 189.927,28.334 184.481,27.950 184.344 C 27.805 184.292,27.774 184.181,27.877 184.077 C 27.981 183.974,28.092 184.005,28.144 184.150 C 28.281 184.534,33.727 184.501,34.114 184.114 C 34.501 183.727,34.534 178.281,34.150 178.144 C 34.005 178.092,33.974 177.981,34.077 177.877 C 34.181 177.774,34.292 177.805,34.344 177.950 C 34.481 178.334,39.927 178.301,40.314 177.914 C 40.702 177.527,40.735 171.881,40.350 171.744 C 40.205 171.692,40.174 171.581,40.277 171.477 C 40.381 171.374,40.492 171.405,40.544 171.550 C 40.681 171.934,46.127 171.901,46.514 171.514 C 46.901 171.127,46.934 165.681,46.550 165.544 C 46.405 165.492,46.374 165.381,46.477 165.277 C 46.581 165.174,46.692 165.205,46.744 165.350 C 46.881 165.735,52.527 165.702,52.914 165.314 C 53.301 164.927,53.334 159.481,52.950 159.344 C 52.805 159.292,52.774 159.181,52.877 159.077 C 52.981 158.974,53.092 159.005,53.144 159.150 C 53.281 159.534,58.727 159.501,59.114 159.114 C 59.501 158.727,59.534 153.281,59.150 153.144 C 59.005 153.092,58.974 152.981,59.077 152.877 C 59.181 152.774,59.292 152.805,59.344 152.950 C 59.481 153.334,64.927 153.301,65.314 152.914 C 65.702 152.527,65.735 146.881,65.350 146.744 C 65.205 146.692,65.174 146.581,65.277 146.477 C 65.381 146.374,65.492 146.405,65.544 146.550 C 65.681 146.934,71.127 146.901,71.514 146.514 C 71.901 146.127,71.934 140.681,71.550 140.544 C 71.405 140.492,71.374 140.381,71.477 140.277 C 71.581 140.174,71.692 140.205,71.744 140.350 C 71.881 140.735,77.527 140.702,77.914 140.314 C 78.301 139.927,78.334 134.481,77.950 134.344 C 77.805 134.292,77.774 134.181,77.877 134.077 C 77.981 133.974,78.092 134.005,78.144 134.150 C 78.281 134.534,83.727 134.501,84.114 134.114 C 84.501 133.727,84.534 128.281,84.150 128.144 C 84.005 128.092,83.974 127.981,84.077 127.877 C 84.181 127.774,84.292 127.805,84.344 127.950 C 84.481 128.334,89.927 128.301,90.314 127.914 C 90.702 127.527,90.735 121.881,90.350 121.744 C 90.205 121.692,90.174 121.581,90.277 121.477 C 90.381 121.374,90.492 121.405,90.544 121.550 C 90.681 121.934,96.127 121.901,96.514 121.514 C 96.901 121.127,96.934 115.681,96.550 115.544 C 96.405 115.492,96.374 115.381,96.477 115.277 C 96.581 115.174,96.692 115.205,96.744 115.350 C 96.881 115.735,102.527 115.702,102.914 115.314 C 103.301 114.927,103.334 109.481,102.950 109.344 C 102.805 109.292,102.774 109.181,102.877 109.077 C 102.981 108.974,103.092 109.005,103.144 109.150 C 103.281 109.534,108.727 109.501,109.114 109.114 C 109.501 108.727,109.534 103.281,109.150 103.144 C 109.005 103.092,108.974 102.981,109.077 102.877 C 109.181 102.774,109.292 102.805,109.344 102.950 C 109.481 103.334,114.927 103.301,115.314 102.914 C 115.702 102.527,115.735 96.881,115.350 96.744 C 115.205 96.692,115.174 96.581,115.277 96.477 C 115.381 96.374,115.492 96.405,115.544 96.550 C 115.681 96.934,121.127 96.901,121.514 96.514 C 121.901 96.127,121.934 90.681,121.550 90.544 C 121.405 90.492,121.374 90.381,121.477 90.277 C 121.581 90.174,121.692 90.205,121.744 90.350 C 121.881 90.735,127.527 90.702,127.914 90.314 C 128.301 89.927,128.334 84.481,127.950 84.344 C 127.805 84.292,127.774 84.181,127.877 84.077 C 127.981 83.974,128.092 84.005,128.144 84.150 C 128.281 84.534,133.727 84.501,134.114 84.114 C 134.501 83.727,134.534 78.281,134.150 78.144 C 134.005 78.092,133.974 77.981,134.077 77.877 C 134.181 77.774,134.292 77.805,134.344 77.950 C 134.481 78.334,139.927 78.301,140.314 77.914 C 140.702 77.527,140.735 71.881,140.350 71.744 C 140.205 71.692,140.174 71.581,140.277 71.477 C 140.381 71.374,140.492 71.405,140.544 71.550 C 140.681 71.934,146.127 71.901,146.514 71.514 C 146.901 71.127,146.934 65.681,146.550 65.544 C 146.405 65.492,146.374 65.381,146.477 65.277 C 146.581 65.174,146.692 65.205,146.744 65.350 C 146.881 65.735,152.527 65.702,152.914 65.314 C 153.301 64.927,153.334 59.481,152.950 59.344 C 152.805 59.292,152.774 59.181,152.877 59.077 C 152.981 58.974,153.092 59.005,153.144 59.150 C 153.281 59.534,158.727 59.501,159.114 59.114 C 159.501 58.727,159.534 53.281,159.150 53.144 C 159.005 53.092,158.974 52.981,159.077 52.877 C 159.181 52.774,159.292 52.805,159.344 52.950 C 159.481 53.334,164.927 53.301,165.314 52.914 C 165.702 52.527,165.735 46.881,165.350 46.744 C 165.205 46.692,165.174 46.581,165.277 46.477 C 165.381 46.374,165.492 46.405,165.544 46.550 C 165.681 46.934,171.127 46.901,171.514 46.514 C 171.901 46.127,171.934 40.681,171.550 40.544 C 171.405 40.492,171.374 40.381,171.477 40.277 C 171.581 40.174,171.692 40.205,171.744 40.350 C 171.881 40.735,177.527 40.702,177.914 40.314 C 178.301 39.927,178.334 34.481,177.950 34.344 C 177.805 34.292,177.774 34.181,177.877 34.077 C 177.981 33.974,178.092 34.005,178.144 34.150 C 178.281 34.534,183.727 34.501,184.114 34.114 C 184.501 33.727,184.534 28.281,184.150 28.144 C 184.005 28.092,183.974 27.981,184.077 27.877 C 184.181 27.774,184.292 27.805,184.344 27.950 C 184.481 28.334,189.927 28.301,190.314 27.914 C 190.702 27.527,190.735 21.881,190.350 21.744 C 190.205 21.692,190.174 21.581,190.277 21.477 C 190.381 21.374,190.492 21.405,190.544 21.550 C 190.681 21.934,196.127 21.901,196.514 21.514 C 196.901 21.127,196.934 15.681,196.550 15.544 C 196.405 15.492,196.374 15.381,196.477 15.277 C 196.581 15.174,196.692 15.205,196.744 15.350 C 196.811 15.537,197.688 15.600,200.200 15.600 C 202.712 15.600,203.589 15.537,203.656 15.350 C 203.708 15.205,203.819 15.174,203.923 15.277 C 204.026 15.381,203.995 15.492,203.850 15.544 C 203.466 15.681,203.499 21.127,203.886 21.514 C 204.273 21.901,209.719 21.934,209.856 21.550 C 209.908 21.405,210.019 21.374,210.123 21.477 C 210.226 21.581,210.195 21.692,210.050 21.744 C 209.665 21.881,209.698 27.527,210.086 27.914 C 210.473 28.301,215.919 28.334,216.056 27.950 C 216.108 27.805,216.219 27.774,216.323 27.877 C 216.426 27.981,216.395 28.092,216.250 28.144 C 215.866 28.281,215.899 33.727,216.286 34.114 C 216.673 34.501,222.119 34.534,222.256 34.150 C 222.308 34.005,222.419 33.974,222.523 34.077 C 222.626 34.181,222.595 34.292,222.450 34.344 C 222.066 34.481,222.099 39.927,222.486 40.314 C 222.873 40.702,228.519 40.735,228.656 40.350 C 228.708 40.205,228.819 40.174,228.923 40.277 C 229.026 40.381,228.995 40.492,228.850 40.544 C 228.466 40.681,228.499 46.127,228.886 46.514 C 229.273 46.901,234.719 46.934,234.856 46.550 C 234.908 46.405,235.019 46.374,235.123 46.477 C 235.226 46.581,235.195 46.692,235.050 46.744 C 234.665 46.881,234.698 52.527,235.086 52.914 C 235.473 53.301,240.919 53.334,241.056 52.950 C 241.108 52.805,241.219 52.774,241.323 52.877 C 241.426 52.981,241.395 53.092,241.250 53.144 C 240.866 53.281,240.899 58.727,241.286 59.114 C 241.673 59.501,247.119 59.534,247.256 59.150 C 247.308 59.005,247.419 58.974,247.523 59.077 C 247.626 59.181,247.595 59.292,247.450 59.344 C 247.066 59.481,247.099 64.927,247.486 65.314 C 247.873 65.702,253.519 65.735,253.656 65.350 C 253.708 65.205,253.819 65.174,253.923 65.277 C 254.026 65.381,253.995 65.492,253.850 65.544 C 253.466 65.681,253.499 71.127,253.886 71.514 C 254.273 71.901,259.719 71.934,259.856 71.550 C 259.908 71.405,260.019 71.374,260.123 71.477 C 260.226 71.581,260.195 71.692,260.050 71.744 C 259.665 71.881,259.698 77.527,260.086 77.914 C 260.473 78.301,265.919 78.334,266.056 77.950 C 266.108 77.805,266.219 77.774,266.323 77.877 C 266.426 77.981,266.395 78.092,266.250 78.144 C 265.866 78.281,265.899 83.727,266.286 84.114 C 266.673 84.501,272.119 84.534,272.256 84.150 C 272.308 84.005,272.419 83.974,272.523 84.077 C 272.626 84.181,272.595 84.292,272.450 84.344 C 272.066 84.481,272.099 89.927,272.486 90.314 C 272.873 90.702,278.519 90.735,278.656 90.350 C 278.708 90.205,278.819 90.174,278.923 90.277 C 279.026 90.381,278.995 90.492,278.850 90.544 C 278.466 90.681,278.499 96.127,278.886 96.514 C 279.273 96.901,284.719 96.934,284.856 96.550 C 284.908 96.405,285.019 96.374,285.123 96.477 C 285.226 96.581,285.195 96.692,285.050 96.744 C 284.665 96.881,284.698 102.527,285.086 102.914 C 285.473 103.301,290.919 103.334,291.056 102.950 C 291.108 102.805,291.219 102.774,291.323 102.877 C 291.426 102.981,291.395 103.092,291.250 103.144 C 290.866 103.281,290.899 108.727,291.286 109.114 C 291.673 109.501,297.119 109.534,297.256 109.150 C 297.308 109.005,297.419 108.974,297.523 109.077 C 297.626 109.181,297.595 109.292,297.450 109.344 C 297.066 109.481,297.099 114.927,297.486 115.314 C 297.873 115.702,303.519 115.735,303.656 115.350 C 303.708 115.205,303.819 115.174,303.923 115.277 C 304.026 115.381,303.995 115.492,303.850 115.544 C 303.466 115.681,303.499 121.127,303.886 121.514 C 304.273 121.901,309.719 121.934,309.856 121.550 C 309.908 121.405,310.019 121.374,310.123 121.477 C 310.226 121.581,310.195 121.692,310.050 121.744 C 309.665 121.881,309.698 127.527,310.086 127.914 C 310.473 128.301,315.919 128.334,316.056 127.950 C 316.108 127.805,316.219 127.774,316.323 127.877 C 316.426 127.981,316.395 128.092,316.250 128.144 C 315.866 128.281,315.899 133.727,316.286 134.114 C 316.673 134.501,322.119 134.534,322.256 134.150 C 322.308 134.005,322.419 133.974,322.523 134.077 C 322.626 134.181,322.595 134.292,322.450 134.344 C 322.066 134.481,322.099 139.927,322.486 140.314 C 322.873 140.702,328.519 140.735,328.656 140.350 C 328.708 140.205,328.819 140.174,328.923 140.277 C 329.026 140.381,328.995 140.492,328.850 140.544 C 328.466 140.681,328.499 146.127,328.886 146.514 C 329.273 146.901,334.719 146.934,334.856 146.550 C 334.908 146.405,335.019 146.374,335.123 146.477 C 335.226 146.581,335.195 146.692,335.050 146.744 C 334.665 146.881,334.698 152.527,335.086 152.914 C 335.473 153.301,340.919 153.334,341.056 152.950 C 341.108 152.805,341.219 152.774,341.323 152.877 C 341.426 152.981,341.395 153.092,341.250 153.144 C 340.866 153.281,340.899 158.727,341.286 159.114 C 341.673 159.501,347.119 159.534,347.256 159.150 C 347.308 159.005,347.419 158.974,347.523 159.077 C 347.626 159.181,347.595 159.292,347.450 159.344 C 347.066 159.481,347.099 164.927,347.486 165.314 C 347.873 165.702,353.519 165.735,353.656 165.350 C 353.708 165.205,353.819 165.174,353.923 165.277 C 354.026 165.381,353.995 165.492,353.850 165.544 C 353.466 165.681,353.499 171.127,353.886 171.514 C 354.273 171.901,359.719 171.934,359.856 171.550 C 359.908 171.405,360.019 171.374,360.123 171.477 C 360.226 171.581,360.195 171.692,360.050 171.744 C 359.665 171.881,359.698 177.527,360.086 177.914 C 360.473 178.301,365.919 178.334,366.056 177.950 C 366.108 177.805,366.219 177.774,366.323 177.877 C 366.426 177.981,366.395 178.092,366.250 178.144 C 365.866 178.281,365.899 183.727,366.286 184.114 C 366.673 184.501,372.119 184.534,372.256 184.150 C 372.308 184.005,372.419 183.974,372.523 184.077 C 372.626 184.181,372.595 184.292,372.450 184.344 C 372.066 184.481,372.099 189.927,372.486 190.314 C 372.873 190.702,378.519 190.735,378.656 190.350 C 378.708 190.205,378.819 190.174,378.923 190.277 C 379.026 190.381,378.995 190.492,378.850 190.544 C 378.466 190.681,378.499 196.127,378.886 196.514 C 379.273 196.901,384.719 196.934,384.856 196.550 C 384.908 196.405,385.019 196.374,385.123 196.477 C 385.226 196.581,385.195 196.692,385.050 196.744 C 384.879 196.805,384.800 197.331,384.800 198.417 L 384.800 200.000 392.400 200.000 L 400.000 200.000 400.000 192.400 L 400.000 184.800 398.417 184.800 C 397.331 184.800,396.805 184.879,396.744 185.050 C 396.692 185.195,396.581 185.226,396.477 185.123 C 396.374 185.019,396.405 184.908,396.550 184.856 C 396.934 184.719,396.901 179.273,396.514 178.886 C 396.127 178.499,390.681 178.466,390.544 178.850 C 390.492 178.995,390.381 179.026,390.277 178.923 C 390.174 178.819,390.205 178.708,390.350 178.656 C 390.735 178.519,390.702 172.873,390.314 172.486 C 389.927 172.099,384.481 172.066,384.344 172.450 C 384.292 172.595,384.181 172.626,384.077 172.523 C 383.974 172.419,384.005 172.308,384.150 172.256 C 384.534 172.119,384.501 166.673,384.114 166.286 C 383.727 165.899,378.281 165.866,378.144 166.250 C 378.092 166.395,377.981 166.426,377.877 166.323 C 377.774 166.219,377.805 166.108,377.950 166.056 C 378.334 165.919,378.301 160.473,377.914 160.086 C 377.527 159.698,371.881 159.665,371.744 160.050 C 371.692 160.195,371.581 160.226,371.477 160.123 C 371.374 160.019,371.405 159.908,371.550 159.856 C 371.934 159.719,371.901 154.273,371.514 153.886 C 371.127 153.499,365.681 153.466,365.544 153.850 C 365.492 153.995,365.381 154.026,365.277 153.923 C 365.174 153.819,365.205 153.708,365.350 153.656 C 365.735 153.519,365.702 147.873,365.314 147.486 C 364.927 147.099,359.481 147.066,359.344 147.450 C 359.292 147.595,359.181 147.626,359.077 147.523 C 358.974 147.419,359.005 147.308,359.150 147.256 C 359.534 147.119,359.501 141.673,359.114 141.286 C 358.727 140.899,353.281 140.866,353.144 141.250 C 353.092 141.395,352.981 141.426,352.877 141.323 C 352.774 141.219,352.805 141.108,352.950 141.056 C 353.334 140.919,353.301 135.473,352.914 135.086 C 352.527 134.698,346.881 134.665,346.744 135.050 C 346.692 135.195,346.581 135.226,346.477 135.123 C 346.374 135.019,346.405 134.908,346.550 134.856 C 346.934 134.719,346.901 129.273,346.514 128.886 C 346.127 128.499,340.681 128.466,340.544 128.850 C 340.492 128.995,340.381 129.026,340.277 128.923 C 340.174 128.819,340.205 128.708,340.350 128.656 C 340.735 128.519,340.702 122.873,340.314 122.486 C 339.927 122.099,334.481 122.066,334.344 122.450 C 334.292 122.595,334.181 122.626,334.077 122.523 C 333.974 122.419,334.005 122.308,334.150 122.256 C 334.534 122.119,334.501 116.673,334.114 116.286 C 333.727 115.899,328.281 115.866,328.144 116.250 C 328.092 116.395,327.981 116.426,327.877 116.323 C 327.774 116.219,327.805 116.108,327.950 116.056 C 328.334 115.919,328.301 110.473,327.914 110.086 C 327.527 109.698,321.881 109.665,321.744 110.050 C 321.692 110.195,321.581 110.226,321.477 110.123 C 321.374 110.019,321.405 109.908,321.550 109.856 C 321.934 109.719,321.901 104.273,321.514 103.886 C 321.127 103.499,315.681 103.466,315.544 103.850 C 315.492 103.995,315.381 104.026,315.277 103.923 C 315.174 103.819,315.205 103.708,315.350 103.656 C 315.735 103.519,315.702 97.873,315.314 97.486 C 314.927 97.099,309.481 97.066,309.344 97.450 C 309.292 97.595,309.181 97.626,309.077 97.523 C 308.974 97.419,309.005 97.308,309.150 97.256 C 309.534 97.119,309.501 91.673,309.114 91.286 C 308.727 90.899,303.281 90.866,303.144 91.250 C 303.092 91.395,302.981 91.426,302.877 91.323 C 302.774 91.219,302.805 91.108,302.950 91.056 C 303.334 90.919,303.301 85.473,302.914 85.086 C 302.527 84.698,296.881 84.665,296.744 85.050 C 296.692 85.195,296.581 85.226,296.477 85.123 C 296.374 85.019,296.405 84.908,296.550 84.856 C 296.934 84.719,296.901 79.273,296.514 78.886 C 296.127 78.499,290.681 78.466,290.544 78.850 C 290.492 78.995,290.381 79.026,290.277 78.923 C 290.174 78.819,290.205 78.708,290.350 78.656 C 290.735 78.519,290.702 72.873,290.314 72.486 C 289.927 72.099,284.481 72.066,284.344 72.450 C 284.292 72.595,284.181 72.626,284.077 72.523 C 283.974 72.419,284.005 72.308,284.150 72.256 C 284.534 72.119,284.501 66.673,284.114 66.286 C 283.727 65.899,278.281 65.866,278.144 66.250 C 278.092 66.395,277.981 66.426,277.877 66.323 C 277.774 66.219,277.805 66.108,277.950 66.056 C 278.334 65.919,278.301 60.473,277.914 60.086 C 277.527 59.698,271.881 59.665,271.744 60.050 C 271.692 60.195,271.581 60.226,271.477 60.123 C 271.374 60.019,271.405 59.908,271.550 59.856 C 271.934 59.719,271.901 54.273,271.514 53.886 C 271.127 53.499,265.681 53.466,265.544 53.850 C 265.492 53.995,265.381 54.026,265.277 53.923 C 265.174 53.819,265.205 53.708,265.350 53.656 C 265.735 53.519,265.702 47.873,265.314 47.486 C 264.927 47.099,259.481 47.066,259.344 47.450 C 259.292 47.595,259.181 47.626,259.077 47.523 C 258.974 47.419,259.005 47.308,259.150 47.256 C 259.534 47.119,259.501 41.673,259.114 41.286 C 258.727 40.899,253.281 40.866,253.144 41.250 C 253.092 41.395,252.981 41.426,252.877 41.323 C 252.774 41.219,252.805 41.108,252.950 41.056 C 253.334 40.919,253.301 35.473,252.914 35.086 C 252.527 34.698,246.881 34.665,246.744 35.050 C 246.692 35.195,246.581 35.226,246.477 35.123 C 246.374 35.019,246.405 34.908,246.550 34.856 C 246.934 34.719,246.901 29.273,246.514 28.886 C 246.127 28.499,240.681 28.466,240.544 28.850 C 240.492 28.995,240.381 29.026,240.277 28.923 C 240.174 28.819,240.205 28.708,240.350 28.656 C 240.735 28.519,240.702 22.873,240.314 22.486 C 239.927 22.099,234.481 22.066,234.344 22.450 C 234.292 22.595,234.181 22.626,234.077 22.523 C 233.974 22.419,234.005 22.308,234.150 22.256 C 234.534 22.119,234.501 16.673,234.114 16.286 C 233.727 15.899,228.281 15.866,228.144 16.250 C 228.092 16.395,227.981 16.426,227.877 16.323 C 227.774 16.219,227.805 16.108,227.950 16.056 C 228.334 15.919,228.301 10.473,227.914 10.086 C 227.527 9.698,221.881 9.665,221.744 10.050 C 221.692 10.195,221.581 10.226,221.477 10.123 C 221.374 10.019,221.405 9.908,221.550 9.856 C 221.934 9.719,221.901 4.273,221.514 3.886 C 221.127 3.499,215.681 3.466,215.544 3.850 C 215.492 3.995,215.381 4.026,215.277 3.923 C 215.174 3.819,215.205 3.708,215.350 3.656 C 215.525 3.594,215.600 3.029,215.600 1.783 L 215.600 0.000 200.200 0.000 L 184.800 0.000 184.800 1.783 " stroke="none" fill="#7cfc04" fill-rule="evenodd"></path><path id="path1" d="" stroke="none" fill="#80fc04" fill-rule="evenodd"></path><path id="path2" d="" stroke="none" fill="#80fc04" fill-rule="evenodd"></path><path id="path3" d="" stroke="none" fill="#80fc04" fill-rule="evenodd"></path><path id="path4" d="" stroke="none" fill="#80fc04" fill-rule="evenodd"></path></g></svg>